HIERARCHY
ROOT Hips
{
	OFFSET 0.00000 0.00000 0.00000
	CHANNELS 6 Xposition Yposition Zposition Zrotation Yrotation Xrotation 
	JOINT LHipJoint
	{
		OFFSET 0 0 0
		CHANNELS 3 Zrotation Yrotation Xrotation
		JOINT LeftHip
		{
			OFFSET 1.62067 -1.77917 0.70989
			CHANNELS 3 Zrotation Yrotation Xrotation
			JOINT LeftKnee
			{
				OFFSET 2.34532 -6.44371 0.00000
				CHANNELS 3 Zrotation Yrotation Xrotation
				JOINT LeftAnkle
				{
					OFFSET 2.74224 -7.53425 0.00000
					CHANNELS 3 Zrotation Yrotation Xrotation
					JOINT LeftToe
					{
						OFFSET 0.17032 -0.46794 2.08086
						CHANNELS 3 Zrotation Yrotation Xrotation
						End Site
						{
							OFFSET 0.00000 -0.00000 1.07476
						}
					}
				}
			}
		}
	}
	JOINT RHipJoint
	{
		OFFSET 0 0 0
		CHANNELS 3 Zrotation Yrotation Xrotation
		JOINT RightHip
		{
			OFFSET -1.55811 -1.77917 0.70989
			CHANNELS 3 Zrotation Yrotation Xrotation
			JOINT RightKnee
			{
				OFFSET -2.33243 -6.40830 0.00000
				CHANNELS 3 Zrotation Yrotation Xrotation
				JOINT RightAnkle
				{
					OFFSET -2.78798 -7.65993 0.00000
					CHANNELS 3 Zrotation Yrotation Xrotation
					JOINT RightToe
					{
						OFFSET -0.22707 -0.62388 2.04059
						CHANNELS 3 Zrotation Yrotation Xrotation
						End Site
						{
							OFFSET -0.00000 -0.00000 1.07030
						}
					}
				}
			}
		}
	}
	JOINT lowerback
	{
		OFFSET 0 0 0
		CHANNELS 3 Zrotation Yrotation Xrotation
		JOINT Chest
		{
			OFFSET 0.02203 1.91565 0.07161
			CHANNELS 3 Zrotation Yrotation Xrotation
			JOINT Chest2
			{
				OFFSET 0.01740 1.90525 0.11636
				CHANNELS 3 Zrotation Yrotation Xrotation
				JOINT lowerneck
				{
					OFFSET 0 0 0
					CHANNELS 3 Zrotation Yrotation Xrotation
					JOINT Neck
					{
						OFFSET -0.10841 1.83566 0.05067
						CHANNELS 3 Zrotation Yrotation Xrotation
						JOINT Head
						{
							OFFSET 0.06601 1.74760 -0.50505
							CHANNELS 3 Zrotation Yrotation Xrotation
							End Site
							{
								OFFSET 0.03102 1.85215 -0.17697
							}
						}
					}
				}
				JOINT LeftCollar
				{
					OFFSET 0 0 0
					CHANNELS 3 Zrotation Yrotation Xrotation
					JOINT LeftShoulder
					{
						OFFSET 2.87059 1.35470 0.16111
CHANNELS 3 Zrotation Xrotation Yrotation
						JOINT LeftElbow
						{
OFFSET 0 -5.435920 0.000000
CHANNELS 3 Zrotation Xrotation Yrotation
							JOINT LeftWrist
							{
OFFSET 0 -3.254600 0.000000
CHANNELS 3 Zrotation Xrotation Yrotation
								JOINT lhand
								{
									OFFSET 0 0 0
CHANNELS 3 Zrotation Xrotation Yrotation
									JOINT LFingers
									{
OFFSET 0 -0.498240 0.000000
CHANNELS 3 Zrotation Xrotation Yrotation
										End Site
										{
OFFSET 0 -0.401700 0.000000
										}
									}
								}
								JOINT LThumb
								{
OFFSET 0 0.000000 0.000000
CHANNELS 3 Zrotation Xrotation Yrotation
									End Site
									{
OFFSET 0 -0.407830 0.407830
									}
								}
							}
						}
					}
				}
				JOINT RightCollar
				{
					OFFSET 0 0 0
					CHANNELS 3 Zrotation Yrotation Xrotation
					JOINT RightShoulder
					{
						OFFSET -2.86643 1.23488 0.45957
CHANNELS 3 Zrotation Xrotation Yrotation
						JOINT RightElbow
						{
OFFSET 0 -5.338300 0.000000
CHANNELS 3 Zrotation Xrotation Yrotation
							JOINT RightWrist
							{
OFFSET 0 -3.231480 0.000000
CHANNELS 3 Zrotation Xrotation Yrotation
								JOINT rhand
								{
									OFFSET 0 0 0
CHANNELS 3 Zrotation Xrotation Yrotation
									JOINT RFingers
									{
OFFSET 0 -0.463640 0.000000
CHANNELS 3 Zrotation Xrotation Yrotation
										End Site
										{
OFFSET 0 -0.373800 0.000000
										}
									}
								}
								JOINT RThumb
								{
OFFSET 0 0.000000 0.000000
CHANNELS 3 Zrotation Xrotation Yrotation
									End Site
									{
OFFSET 0 -0.379510 0.379510
									}
								}
							}
						}
					}
				}
			}
		}
	}
}
MOTION
Frames: 11
Frame Time: 0.008333333333333333
4.053227 16.803715 -5.366745 3.581718 41.058560 379.362324 0.000000 0.000000 0.000000 -21.980516 -10.584379 -21.292647 4.078028 12.263489 36.670741 1.640260 14.655523 -33.270291 0.109634 -2.133512 -5.874767 0.000000 0.000000 0.000000 1.765359 13.167754 -46.307595 -6.266405 -14.681524 46.041461 0.044264 -15.563786 -21.637661 -0.000740 0.169371 -0.465286 2.616810 4.719052 -3.648153 4.445822 6.384848 -3.547510 3.238100 3.240502 -1.851365 -19.161485 -17.479661 0.574167 13.314706 -25.718470 22.546986 4.429172 -12.389091 11.560211 0.000000 0.000000 0.000000 35.687813 37.049307 46.561213 17.414066 -27.400111 4.276356 49.275575 -57.435451 20.707627 0.000000 0.000000 0.000000 -7.125000 0.000000 0.000000 12.568669 0.516856 12.766789 0.000000 0.000000 0.000000 -15.743417 -7.953931 33.555010 -17.335030 -27.297277 -4.239846 -26.695715 34.437355 37.367801 0.000000 0.000000 0.000000 7.125000 0.000000 0.000000 -4.092065 -19.649207 -177.517495
4.052750 16.799957 -5.337641 3.926624 40.936165 379.796618 0.000000 0.000000 0.000000 -22.232576 -10.890862 -21.183724 4.045223 12.220349 36.516087 1.635435 14.882435 -33.436611 0.099725 -2.036310 -5.606092 0.000000 0.000000 0.000000 1.544286 12.234427 -46.919162 -6.180553 -14.600965 45.701991 -0.036705 -15.068684 -21.773474 -0.000825 0.179911 -0.494345 2.658563 4.845148 -3.684195 4.399350 6.547375 -3.519531 3.175755 3.320047 -1.797917 -18.789108 -17.665397 0.845608 13.427154 -25.994089 22.060267 4.398615 -12.504473 11.336321 0.000000 0.000000 0.000000 37.820460 36.604788 44.978773 17.578013 -27.613524 4.351904 49.393767 -58.145020 20.824590 0.000000 0.000000 0.000000 -7.125000 0.000000 0.000000 12.606748 0.312965 12.853311 0.000000 0.000000 0.000000 -16.056460 -8.395799 31.638677 -17.431045 -27.422473 -4.284007 -27.929535 35.475116 37.686678 0.000000 0.000000 0.000000 7.125000 0.000000 0.000000 -3.473876 -18.965908 -177.843213
4.041667 16.797279 -5.284878 4.150617 40.691006 380.229975 0.000000 0.000000 0.000000 -22.311159 -11.320577 -21.120709 4.007391 12.170254 36.336947 1.572426 15.455179 -33.571487 0.100826 -2.047415 -5.636808 0.000000 0.000000 0.000000 1.240268 12.124578 -47.457860 -6.097330 -14.521873 45.370898 -0.042292 -15.269240 -22.114104 -0.000402 0.112122 -0.308155 2.492516 5.120718 -3.869661 4.244002 6.912939 -3.612550 3.126530 3.505606 -1.805666 -18.091791 -17.904918 1.419149 13.496288 -26.389729 21.578061 4.323653 -12.668856 11.024933 0.000000 0.000000 0.000000 40.676482 35.887101 43.152608 17.602184 -27.644843 4.363110 49.111801 -57.466321 20.177078 0.000000 0.000000 0.000000 -7.125000 0.000000 0.000000 12.608218 1.282170 12.632936 0.000000 0.000000 0.000000 -16.518631 -8.831499 30.210445 -17.439666 -27.433677 -4.288021 -29.168209 35.822348 38.455448 0.000000 0.000000 0.000000 7.125000 0.000000 0.000000 -2.965028 -17.816490 -178.085114
4.032498 16.799311 -5.232689 4.170901 40.578195 380.443705 0.000000 0.000000 0.000000 -22.226543 -11.770340 -20.943545 3.959565 12.106374 36.109372 1.462931 16.223041 -33.623146 0.111227 -2.148984 -5.917588 0.000000 0.000000 0.000000 1.148347 12.001527 -47.869865 -6.011112 -14.439003 45.026057 0.019233 -15.850304 -22.296011 -0.001763 0.191497 -0.526157 2.702003 5.042159 -3.803804 4.321002 6.814475 -3.672818 3.080157 3.452636 -1.888389 -17.963266 -17.908174 1.282736 13.281968 -26.353552 21.774220 4.230242 -12.644799 11.062773 0.000000 0.000000 0.000000 42.601941 35.760861 42.501694 17.573799 -27.607994 4.349940 48.819355 -56.161190 19.068000 0.000000 0.000000 0.000000 -7.125000 0.000000 0.000000 12.716020 2.863946 12.375598 0.000000 0.000000 0.000000 -17.421772 -9.841899 30.003069 -17.294616 -27.244395 -4.221404 -30.165508 35.759692 39.266470 0.000000 0.000000 0.000000 7.125000 0.000000 0.000000 -2.617025 -16.690074 -178.243941
4.040122 16.804642 -5.220913 4.554922 40.685838 380.859815 0.000000 0.000000 0.000000 -22.553121 -12.274021 -20.668377 3.904348 12.031947 35.845261 1.413067 16.644695 -33.720592 0.105141 -2.074754 -5.712702 0.000000 0.000000 0.000000 0.967621 10.731968 -48.466513 -5.925490 -14.355658 44.681798 0.048801 -15.906789 -22.081515 -0.003926 0.399874 -1.098753 3.284442 4.896272 -3.505067 4.332257 6.623388 -3.690023 2.740781 3.341155 -2.001000 -18.038490 -17.990096 0.891103 13.043582 -26.406320 22.146450 4.102832 -12.656053 11.257641 0.000000 0.000000 0.000000 44.257029 35.479975 41.971910 17.510322 -27.525586 4.320538 49.214450 -56.035228 18.758378 0.000000 0.000000 0.000000 -7.125000 0.000000 0.000000 13.019765 3.103101 12.635048 0.000000 0.000000 0.000000 -18.413053 -10.893491 29.292577 -17.139147 -27.040752 -4.150366 -30.770154 35.778051 39.613232 0.000000 0.000000 0.000000 7.125000 0.000000 0.000000 -2.384411 -16.149082 -178.371638
4.034703 16.811486 -5.172251 4.783839 40.601046 381.293234 0.000000 0.000000 0.000000 -22.626093 -12.878017 -20.449221 3.855281 11.965175 35.609021 1.515007 16.590720 -34.255286 0.058688 -1.542327 -4.242694 0.000000 0.000000 0.000000 0.734520 10.394217 -48.985912 -5.846168 -14.277504 44.361038 0.070256 -16.334550 -22.479490 -0.001675 0.165269 -0.454129 3.229212 4.812331 -3.639681 4.560020 6.510262 -3.667274 3.016702 3.291962 -1.933780 -18.144074 -18.066732 0.688055 12.854718 -26.450101 22.264920 4.018328 -12.680769 11.333174 0.000000 0.000000 0.000000 45.812070 35.089797 41.423106 17.444708 -27.440310 4.290253 50.834268 -58.425061 20.225081 0.000000 0.000000 0.000000 -7.125000 0.000000 0.000000 13.576915 0.442856 13.870000 0.000000 0.000000 0.000000 -19.411510 -11.725387 28.320005 -17.025478 -26.891232 -4.098851 -31.146293 35.884447 39.693508 0.000000 0.000000 0.000000 7.125000 0.000000 0.000000 -2.210474 -15.947001 -178.480837
4.033993 16.818268 -5.105205 4.757957 40.620466 381.458230 0.000000 0.000000 0.000000 -22.461653 -13.237449 -20.183966 3.814067 11.908751 35.409943 1.617965 16.458273 -34.716870 0.030714 -1.130750 -3.108647 0.000000 0.000000 0.000000 0.876468 9.948006 -49.356256 -5.782749 -14.214427 44.103383 0.074102 -16.687666 -22.956439 -0.001120 -0.206607 0.567733 3.593214 4.691675 -3.582930 4.612574 6.357556 -3.805178 2.857213 3.207317 -2.071842 -17.903374 -18.005356 0.780706 12.663040 -26.337414 22.270770 3.962945 -12.632889 11.229628 0.000000 0.000000 0.000000 47.816208 34.941401 40.713505 17.447649 -27.444049 4.291587 52.154018 -60.647535 21.700353 0.000000 0.000000 0.000000 -7.125000 0.000000 0.000000 13.934702 -2.141240 14.887040 0.000000 0.000000 0.000000 -19.882580 -12.245499 27.590642 -16.882534 -26.702588 -4.034462 -31.454855 36.070480 39.949633 0.000000 0.000000 0.000000 7.125000 0.000000 0.000000 -2.116488 -15.589871 -178.529451
4.022077 16.812883 -5.062824 4.839454 40.555650 381.892487 0.000000 0.000000 0.000000 -22.352568 -13.462713 -20.417276 3.788708 11.873749 35.286934 1.555342 16.822264 -34.696387 0.031642 -1.147891 -3.155924 0.000000 0.000000 0.000000 0.891620 9.426322 -50.169612 -5.731433 -14.162921 43.894117 0.158373 -17.237401 -22.943925 -0.001938 -0.281391 0.773175 3.851872 4.590055 -3.594371 4.717111 6.226001 -3.886194 2.818389 3.137343 -2.132086 -17.690128 -17.919535 0.718531 12.472352 -26.156498 22.195841 3.909806 -12.550429 11.116529 0.000000 0.000000 0.000000 49.393571 34.635678 40.235434 17.508246 -27.522905 4.319596 51.424106 -59.556066 21.578306 0.000000 0.000000 0.000000 -7.125000 0.000000 0.000000 13.559058 -1.618647 14.341058 0.000000 0.000000 0.000000 -20.616156 -13.025593 27.073240 -16.706811 -26.469517 -3.955847 -32.072977 36.300853 40.594268 0.000000 0.000000 0.000000 7.125000 0.000000 0.000000 -1.969364 -14.738895 -178.596969
4.008297 16.799256 -5.014250 5.147042 40.457397 382.453902 0.000000 0.000000 0.000000 -22.424992 -13.680680 -20.643373 3.776049 11.856194 35.225314 1.503590 17.176806 -34.732363 0.033056 -1.173471 -3.226312 0.000000 0.000000 0.000000 0.728948 8.843976 -51.020374 -5.682559 -14.113457 43.693954 0.298460 -17.945757 -22.643688 -0.001207 -0.208685 0.573485 3.883304 4.522043 -3.726726 4.803322 6.126080 -3.866331 2.900805 3.089475 -2.042160 -17.656372 -17.918262 0.562347 12.457132 -26.124641 22.155833 3.892414 -12.526367 11.116512 0.000000 0.000000 0.000000 50.938319 34.111484 39.630104 17.561609 -27.592231 4.344248 50.576868 -58.215743 21.391880 0.000000 0.000000 0.000000 -7.125000 0.000000 0.000000 13.132169 -0.965975 13.714474 0.000000 0.000000 0.000000 -21.467632 -13.889012 26.397352 -16.537097 -26.243413 -3.880487 -33.115752 36.735958 41.279588 0.000000 0.000000 0.000000 7.125000 0.000000 0.000000 -1.634662 -13.701786 -178.799021
4.004947 16.794507 -4.944231 5.169779 40.436844 382.778553 0.000000 0.000000 0.000000 -22.269493 -13.510669 -20.865211 3.778638 11.859845 35.238019 1.599882 16.868343 -34.985650 0.025585 -1.023619 -2.813866 0.000000 0.000000 0.000000 0.907826 8.154647 -51.722200 -5.636825 -14.066980 43.506315 0.356759 -18.334679 -22.681519 -0.005556 -0.447678 1.230244 4.093124 4.441340 -4.054226 4.982564 5.989835 -3.806324 2.999731 3.022965 -1.793766 -17.767854 -17.938351 0.406571 12.486504 -26.131528 22.134891 3.896579 -12.526202 11.159736 0.000000 0.000000 0.000000 52.390378 33.453447 39.610598 17.548100 -27.574564 4.337998 50.528436 -57.251576 21.664112 0.000000 0.000000 0.000000 -7.125000 0.000000 0.000000 13.032997 -1.299056 13.680846 0.000000 0.000000 0.000000 -22.313066 -14.711881 25.565054 -16.362924 -26.010185 -3.803735 -33.809295 36.953922 41.613145 0.000000 0.000000 0.000000 7.125000 0.000000 0.000000 -1.390191 -13.130037 -178.961807
3.985318 16.800882 -4.888039 4.793984 40.259342 382.807751 0.000000 0.000000 0.000000 -21.781755 -13.300782 -21.152576 3.783998 11.867264 35.264091 1.761207 16.347040 -35.407861 0.008710 -0.602419 -1.655492 0.000000 0.000000 0.000000 1.212697 8.212298 -52.247602 -5.587263 -14.016095 43.301873 0.364305 -18.839845 -23.432913 -0.023050 -0.979679 2.692856 4.556668 4.353748 -3.908536 5.230009 5.881486 -3.810451 2.986466 2.962275 -1.860240 -17.752271 -17.870500 0.091859 12.325471 -25.964888 22.201425 3.843194 -12.444953 11.184899 0.000000 0.000000 0.000000 53.692776 32.878737 40.247666 17.487217 -27.495533 4.309887 50.112233 -54.808518 21.126897 0.000000 0.000000 0.000000 -7.125000 0.000000 0.000000 12.938386 -0.403791 13.373868 0.000000 0.000000 0.000000 -23.012124 -15.655316 24.748725 -16.133628 -25.701399 -3.703779 -34.201607 37.302600 41.893019 0.000000 0.000000 0.000000 7.125000 0.000000 0.000000 -1.280986 -12.714297 -179.032310
